<svg width="1024" height="1024" viewBox="0 0 1024 1024" fill="none" xmlns="http://www.w3.org/2000/svg">
  <defs>
    <linearGradient id="bg" x1="160" y1="140" x2="860" y2="900" gradientUnits="userSpaceOnUse">
      <stop stop-color="#EEF6FF"/>
      <stop offset="1" stop-color="#D9EBFF"/>
    </linearGradient>
    <linearGradient id="panel" x1="312" y1="330" x2="700" y2="760" gradientUnits="userSpaceOnUse">
      <stop stop-color="#FFFFFF"/>
      <stop offset="1" stop-color="#F4F9FF"/>
    </linearGradient>
    <linearGradient id="roof" x1="250" y1="250" x2="772" y2="780" gradientUnits="userSpaceOnUse">
      <stop stop-color="#3C96FF"/>
      <stop offset="1" stop-color="#185DCC"/>
    </linearGradient>
    <filter id="shadow" x="184" y="174" width="656" height="676" filterUnits="userSpaceOnUse" color-interpolation-filters="sRGB">
      <feFlood flood-opacity="0" result="BackgroundImageFix"/>
      <feColorMatrix in="SourceAlpha" type="matrix" values="0 0 0 0 0 0 0 0 0 0 0 0 0 0 0 0 0 0 127 0" result="hardAlpha"/>
      <feOffset dy="28"/>
      <feGaussianBlur stdDeviation="28"/>
      <feColorMatrix type="matrix" values="0 0 0 0 0.0941176 0 0 0 0 0.364706 0 0 0 0 0.8 0 0 0 0.20 0"/>
      <feBlend mode="normal" in2="BackgroundImageFix" result="effect1_dropShadow_0_1"/>
      <feBlend mode="normal" in="SourceGraphic" in2="effect1_dropShadow_0_1" result="shape"/>
    </filter>
  </defs>
  <rect width="1024" height="1024" rx="248" fill="url(#bg)"/>
  <circle cx="512" cy="512" r="364" fill="#FFFFFF" fill-opacity="0.35"/>
  <g filter="url(#shadow)">
    <path d="M256 462L512 246L768 462V704C768 747.078 733.078 782 690 782H334C290.922 782 256 747.078 256 704V462Z" fill="url(#panel)"/>
    <path d="M208 462.5L473.91 237.595C496.343 218.62 529.267 218.62 551.7 237.595L817.61 462.5C832.214 474.852 833.814 496.708 821.18 511.069C808.545 525.43 786.461 526.86 771.857 514.509L512.805 295.536L253.753 514.509C239.149 526.86 217.065 525.43 204.43 511.069C191.796 496.708 193.396 474.852 208 462.5Z" fill="url(#roof)"/>
    <rect x="366" y="406" width="292" height="276" rx="34" fill="#F8FBFF" stroke="#B8D6FF" stroke-width="18"/>
    <rect x="420" y="464" width="48" height="48" rx="14" fill="#2C8BFF"/>
    <path d="M432 487L444 499L458 475" stroke="white" stroke-width="10" stroke-linecap="round" stroke-linejoin="round"/>
    <rect x="492" y="473" width="118" height="14" rx="7" fill="#8EBAF3"/>
    <rect x="492" y="495" width="94" height="14" rx="7" fill="#C1D9F8"/>
    <rect x="420" y="548" width="48" height="48" rx="14" fill="#2C8BFF"/>
    <path d="M432 571L444 583L458 559" stroke="white" stroke-width="10" stroke-linecap="round" stroke-linejoin="round"/>
    <rect x="492" y="557" width="118" height="14" rx="7" fill="#8EBAF3"/>
    <rect x="492" y="579" width="94" height="14" rx="7" fill="#C1D9F8"/>
  </g>
</svg>
